<svg viewBox="0 0 38 38" fill="none" xmlns="http://www.w3.org/2000/svg">
<path d="M27.1999 37.7488H10.7578C8.80032 37.7488 7.17735 36.2181 7.06264 34.2639L5.42424 6.28087C5.40422 5.93675 5.52685 5.59973 5.76293 5.34904C5.99943 5.09836 6.32853 4.95654 6.67348 4.95654H31.2838C31.6283 4.95654 31.9574 5.09878 32.1943 5.34904C32.4304 5.59973 32.553 5.93675 32.5334 6.28087L30.895 34.2643C30.7803 36.2181 29.1573 37.7488 27.1999 37.7488ZM7.99989 7.45878L9.56113 34.1175C9.59783 34.7507 10.1238 35.2462 10.7578 35.2462H27.1999C27.8339 35.2462 28.359 34.7507 28.3961 34.1179L29.9569 7.45878H7.99989Z" fill="#F20404"/>
<path d="M33.8677 7.45871H4.08946C3.39831 7.45871 2.83813 6.89853 2.83813 6.20738C2.83813 5.51623 3.39831 4.95605 4.08946 4.95605H33.8682C34.5593 4.95605 35.1195 5.51623 35.1195 6.20738C35.1195 6.89853 34.5593 7.45871 33.8677 7.45871Z" fill="#F20404"/>
<path d="M24.705 7.45876H13.2521C12.5609 7.45876 12.0007 6.89858 12.0007 6.20743V3.87496C12.0007 1.85365 13.6454 0.208984 15.6671 0.208984H22.2904C24.3121 0.208984 25.9564 1.85365 25.9564 3.87496V6.20743C25.9564 6.89858 25.3962 7.45876 24.705 7.45876ZM14.5034 4.95611H23.4533V3.87496C23.4537 3.23344 22.9319 2.71164 22.29 2.71164H15.6671C15.0256 2.71164 14.5038 3.23344 14.5038 3.87496V4.95611H14.5034Z" fill="#F20404"/>
<path d="M24.5386 31.4886C24.5135 31.4886 24.4893 31.4878 24.4639 31.4865C23.7744 31.4461 23.2476 30.8538 23.2881 30.1639L24.32 12.5435C24.3605 11.8532 24.949 11.3201 25.6427 11.3677C26.3321 11.4082 26.8589 12 26.8185 12.6899L25.7866 30.3107C25.7478 30.9756 25.1959 31.4886 24.5386 31.4886Z" fill="#F20404"/>
<path d="M13.4182 31.4885C12.7604 31.4885 12.2094 30.9754 12.1702 30.3106L11.1387 12.6898C11.0982 11.9999 11.6246 11.408 12.3145 11.3676C13.0011 11.3213 13.5963 11.8535 13.6367 12.5434L14.6682 30.1638C14.7087 30.8537 14.1823 31.4459 13.4924 31.4864C13.4678 31.4877 13.4432 31.4885 13.4182 31.4885Z" fill="#F20404"/>
<path d="M18.9786 31.4883C18.2875 31.4883 17.7273 30.9281 17.7273 30.2369V12.6166C17.7273 11.9254 18.2875 11.3652 18.9786 11.3652C19.6698 11.3652 20.23 11.9254 20.23 12.6166V30.2369C20.23 30.9281 19.6698 31.4883 18.9786 31.4883Z" fill="#F20404"/>
</svg>
