<svg width="13" height="14" viewBox="0 0 13 14" fill="none" xmlns="http://www.w3.org/2000/svg">
<path d="M6.40112 4.78272L8.26206 6.78681L8.27093 6.68184C8.27093 5.62888 7.47634 4.77318 6.4986 4.77318L6.40112 4.78272Z" fill="black"/>
<path d="M6.49849 3.50074C8.12903 3.50074 9.45237 4.92588 9.45237 6.68184C9.45237 7.09221 9.37558 7.48348 9.24266 7.84293L10.9707 9.70388C11.8627 8.90224 12.5658 7.86521 13 6.68184C11.975 3.88885 9.45534 1.9102 6.49852 1.9102C5.67142 1.9102 4.8798 2.06925 4.14429 2.35555L5.42036 3.72659C5.75411 3.58663 6.11744 3.50074 6.49849 3.50074Z" fill="black"/>
<path d="M0.590766 1.7671L1.93773 3.21768L2.20654 3.50717C1.23177 4.3279 0.460804 5.41902 0 6.6819C1.02205 9.47489 3.54465 11.4535 6.49853 11.4535C7.41424 11.4535 8.28858 11.2627 9.08909 10.9159L9.34018 11.1863L11.0623 13.0441L11.8155 12.2361L1.344 0.955925L0.590766 1.7671ZM3.85777 5.28222L4.77051 6.26518C4.74393 6.40198 4.72621 6.53875 4.72621 6.6819C4.72621 7.73485 5.52079 8.59055 6.49853 8.59055C6.63146 8.59055 6.75848 8.57147 6.88254 8.54284L7.79529 9.52579C7.40242 9.73575 6.96526 9.863 6.49853 9.863C4.86799 9.863 3.54465 8.43786 3.54465 6.6819C3.54465 6.17929 3.66281 5.70848 3.85777 5.28222Z" fill="black"/>
</svg>
