<svg width="31" height="35" viewBox="0 0 31 35" fill="none" xmlns="http://www.w3.org/2000/svg">
<path d="M15.0879 18.7818C18.0056 18.7818 20.3709 16.6106 20.3709 13.9322C20.3709 11.2539 18.0056 9.08266 15.0879 9.08266C12.1702 9.08266 9.80493 11.2539 9.80493 13.9322C9.80493 16.6106 12.1702 18.7818 15.0879 18.7818Z" stroke="#878787" stroke-width="2" stroke-linecap="round" stroke-linejoin="round"/>
<path d="M15.088 1C11.3516 1 7.76829 2.3625 5.12628 4.78777C2.48427 7.21303 1 10.5024 1 13.9322C1 16.9907 1.70792 18.992 3.6415 21.2066L15.088 33.3306L26.5345 21.2066C28.4681 18.992 29.176 16.9907 29.176 13.9322C29.176 10.5024 27.6917 7.21303 25.0497 4.78777C22.4077 2.3625 18.8244 1 15.088 1V1Z" stroke="#878787" stroke-width="2" stroke-linecap="round" stroke-linejoin="round"/>
</svg>
